<svg xmlns="http://www.w3.org/2000/svg" width="129.596" height="129.589" viewBox="0 0 129.596 129.589">
  <g id="pen" transform="translate(0 -0.414)">
    <path id="Path_9" data-name="Path 9" d="M249.412,1.28a2.956,2.956,0,0,0-2.121-.866,3.08,3.08,0,0,0-2.12.866L202.391,44.057l-.119.12-.06.06c-.06.09-.149.18-.209.268,0,.03-.03.03-.03.061-.06.089-.09.149-.149.238-.03.03-.03.061-.06.09-.03.09-.06.149-.09.239,0,.03-.03.03-.03.06l-7.618,22.973a2.942,2.942,0,0,0,.718,3.047,3.008,3.008,0,0,0,2.12.866,3.543,3.543,0,0,0,.957-.149l22.912-7.647c.029,0,.029,0,.06-.03a1.063,1.063,0,0,0,.268-.119.108.108,0,0,0,.061-.03c.089-.06.209-.119.3-.18s.179-.149.268-.209c.03-.029.059-.029.059-.06.03-.03.09-.06.12-.119l42.807-42.808a2.975,2.975,0,0,0,0-4.213ZM205.8,51.705l8.454,8.454-12.667,4.211Zm13.981,5.526L208.725,46.179,247.291,7.612l11.053,11.053Zm0,0" transform="translate(-135.954 0)" fill="#007bff"/>
    <path id="Path_10" data-name="Path 10" d="M106.407,103.651a3,3,0,0,0-2.987,2.987v55.833a8.988,8.988,0,0,1-8.962,8.962H14.937a8.989,8.989,0,0,1-8.962-8.962V82.949a8.989,8.989,0,0,1,8.962-8.962H70.769a2.987,2.987,0,0,0,0-5.975H14.937A14.943,14.943,0,0,0,0,82.949v79.523a14.943,14.943,0,0,0,14.937,14.936H94.458a14.942,14.942,0,0,0,14.936-14.936V106.638A3,3,0,0,0,106.407,103.651Zm0,0" transform="translate(0 -47.405)" fill="#007bff"/>
  </g>
</svg>
