<svg id="facebook" xmlns="http://www.w3.org/2000/svg" width="60" height="60" viewBox="0 0 60 60">
  <path id="Path_33" data-name="Path 33" d="M292.21,508.668q-.675.11-1.355.2Q291.535,508.778,292.21,508.668Zm0,0" transform="translate(-257.117 -449.371)" fill="#fff"/>
  <path id="Path_34" data-name="Path 34" d="M299.985,507.793c-.215.04-.43.076-.645.113C299.554,507.869,299.77,507.833,299.985,507.793Zm0,0" transform="translate(-264.429 -448.68)" fill="#fff"/>
  <path id="Path_35" data-name="Path 35" d="M279.2,510.34q-.79.089-1.588.157Q278.407,510.43,279.2,510.34Zm0,0" transform="translate(-245.466 -450.69)" fill="#fff"/>
  <path id="Path_36" data-name="Path 36" d="M287.207,509.738c-.253.034-.508.065-.761.095C286.7,509.8,286.954,509.772,287.207,509.738Zm0,0" transform="translate(-253.068 -450.215)" fill="#fff"/>
  <path id="Path_37" data-name="Path 37" d="M307.234,506.41c-.19.04-.38.081-.57.119C306.854,506.491,307.045,506.45,307.234,506.41Zm0,0" transform="translate(-270.879 -447.589)" fill="#fff"/>
  <path id="Path_38" data-name="Path 38" d="M324.944,502.113c-.153.044-.307.085-.46.128C324.638,502.2,324.791,502.157,324.944,502.113Zm0,0" transform="translate(-286.589 -444.199)" fill="#fff"/>
  <path id="Path_39" data-name="Path 39" d="M319.56,503.543c-.166.044-.334.088-.5.13Q319.31,503.61,319.56,503.543Zm0,0" transform="translate(-281.809 -445.327)" fill="#fff"/>
  <path id="Path_40" data-name="Path 40" d="M312.6,505.254c-.176.041-.354.08-.532.119C312.245,505.334,312.423,505.3,312.6,505.254Zm0,0" transform="translate(-275.641 -446.677)" fill="#fff"/>
  <path id="Path_41" data-name="Path 41" d="M274.334,511.09q-.426.036-.854.064Q273.908,511.126,274.334,511.09Zm0,0" transform="translate(-241.636 -451.282)" fill="#fff"/>
  <path id="Path_42" data-name="Path 42" d="M60,30A30,30,0,1,0,30,60c.176,0,.352,0,.527-.007V36.639H24.082V29.128h6.445V23.6c0-6.411,3.913-9.9,9.632-9.9a53.057,53.057,0,0,1,5.778.3v6.7H41.994c-3.111,0-3.713,1.479-3.713,3.648v4.784H45.72l-.97,7.511H38.281v22.2A30.016,30.016,0,0,0,60,30Zm0,0" fill="#fff"/>
  <path id="Path_43" data-name="Path 43" d="M266.583,511.43q-.843.054-1.692.084Q265.74,511.486,266.583,511.43Zm0,0" transform="translate(-234.244 -451.55)" fill="#fff"/>
  <path id="Path_44" data-name="Path 44" d="M261.4,511.836q-.447.015-.9.022Q260.953,511.851,261.4,511.836Zm0,0" transform="translate(-230.181 -451.871)" fill="#fff"/>
</svg>
