<svg xmlns="http://www.w3.org/2000/svg" width="60" height="60" viewBox="0 0 60 60">
  <g id="github-logo" transform="translate(0 -5.365)">
    <path id="Path_57" data-name="Path 57" d="M55.976,20.681A30.255,30.255,0,0,0,45.058,9.489,28.794,28.794,0,0,0,30,5.365,28.8,28.8,0,0,0,14.941,9.489,30.251,30.251,0,0,0,4.023,20.681,30.663,30.663,0,0,0,0,36.116,30.392,30.392,0,0,0,5.723,54.195,29.439,29.439,0,0,0,20.507,65.306a1.715,1.715,0,0,0,1.562-.28,1.584,1.584,0,0,0,.508-1.2q0-.12-.02-2.162t-.02-3.563l-.9.159a11.186,11.186,0,0,1-2.168.14,16.127,16.127,0,0,1-2.715-.28,6,6,0,0,1-2.617-1.2,5.078,5.078,0,0,1-1.718-2.462l-.391-.921a10.053,10.053,0,0,0-1.23-2.042,4.748,4.748,0,0,0-1.7-1.521l-.273-.2a2.9,2.9,0,0,1-.508-.481,2.2,2.2,0,0,1-.351-.561q-.117-.281.2-.461A2.478,2.478,0,0,1,9.3,48.09l.781.12a5.642,5.642,0,0,1,1.934.961,6.4,6.4,0,0,1,1.894,2.082,7,7,0,0,0,2.168,2.5,4.523,4.523,0,0,0,2.558.861,10.844,10.844,0,0,0,2.227-.2,7.638,7.638,0,0,0,1.758-.6A6.552,6.552,0,0,1,24.53,49.69a26.155,26.155,0,0,1-4-.721,15.727,15.727,0,0,1-3.671-1.562,10.582,10.582,0,0,1-3.145-2.682,13.018,13.018,0,0,1-2.05-4.2,20.461,20.461,0,0,1-.8-6.006,11.844,11.844,0,0,1,3.086-8.249,11.014,11.014,0,0,1,.273-8.168,5.354,5.354,0,0,1,3.359.54,23.225,23.225,0,0,1,3.262,1.542q1.036.64,1.66,1.081a27.546,27.546,0,0,1,15,0l1.484-.961a20.8,20.8,0,0,1,3.593-1.762,5.005,5.005,0,0,1,3.165-.44,10.907,10.907,0,0,1,.312,8.168,11.846,11.846,0,0,1,3.086,8.249,20.69,20.69,0,0,1-.8,6.026,12.509,12.509,0,0,1-2.069,4.2,10.983,10.983,0,0,1-3.165,2.663,15.757,15.757,0,0,1-3.672,1.562,26.129,26.129,0,0,1-4,.722q2.03,1.8,2.031,5.685v8.448a1.615,1.615,0,0,0,.489,1.2,1.664,1.664,0,0,0,1.543.28A29.435,29.435,0,0,0,54.278,54.194,30.4,30.4,0,0,0,60,36.115,30.687,30.687,0,0,0,55.976,20.681Z" transform="translate(0)" fill="#fff"/>
  </g>
</svg>
