<svg xmlns="http://www.w3.org/2000/svg" width="60" height="60" viewBox="0 0 60 60">
  <g id="instagram" transform="translate(90.514 90.514)">
    <path id="Path_45" data-name="Path 45" d="M231.4,219.2A12.2,12.2,0,1,1,219.2,207,12.2,12.2,0,0,1,231.4,219.2Zm0,0" transform="translate(-279.711 -279.711)" fill="#fff"/>
    <path id="Path_46" data-name="Path 46" d="M194.012,143.907a12.118,12.118,0,0,0-6.945-6.945,20.246,20.246,0,0,0-6.794-1.259c-3.859-.176-5.017-.214-14.787-.214s-10.929.037-14.787.213a20.259,20.259,0,0,0-6.794,1.26,12.123,12.123,0,0,0-6.946,6.945,20.253,20.253,0,0,0-1.259,6.8c-.176,3.858-.214,5.016-.214,14.787s.038,10.928.214,14.787a20.246,20.246,0,0,0,1.259,6.794,12.118,12.118,0,0,0,6.945,6.945,20.222,20.222,0,0,0,6.8,1.26c3.858.176,5.015.213,14.786.213s10.93-.037,14.787-.213a20.222,20.222,0,0,0,6.8-1.26,12.118,12.118,0,0,0,6.945-6.945,20.265,20.265,0,0,0,1.26-6.794c.176-3.859.213-5.017.213-14.787s-.037-10.929-.213-14.787a20.222,20.222,0,0,0-1.26-6.8Zm-28.526,40.372a18.791,18.791,0,1,1,18.791-18.791A18.791,18.791,0,0,1,165.485,184.279Zm19.534-33.933a4.391,4.391,0,1,1,4.391-4.391A4.391,4.391,0,0,1,185.019,150.346Zm0,0" transform="translate(-225.998 -226.002)" fill="#fff"/>
    <path id="Path_47" data-name="Path 47" d="M7.468,0a7.468,7.468,0,1,0,7.468,7.468A7.469,7.469,0,0,0,7.468,0ZM11.73,9.236a3.146,3.146,0,0,1-.2,1.041,2.193,2.193,0,0,1-1.254,1.254,3.148,3.148,0,0,1-1.041.2c-.457.021-.6.026-1.768.026S6.157,11.751,5.7,11.73a3.148,3.148,0,0,1-1.041-.2,2.193,2.193,0,0,1-1.254-1.254,3.145,3.145,0,0,1-.2-1.041c-.021-.457-.026-.6-.026-1.768s0-1.311.026-1.768a3.147,3.147,0,0,1,.2-1.041A2.194,2.194,0,0,1,4.659,3.4a3.149,3.149,0,0,1,1.041-.2c.457-.021.6-.026,1.768-.026s1.311.005,1.768.026a3.15,3.15,0,0,1,1.041.2,2.193,2.193,0,0,1,1.254,1.254,3.146,3.146,0,0,1,.2,1.041c.021.457.026.6.026,1.768S11.751,8.779,11.73,9.236Zm0,0" transform="translate(-67.982 -67.982)" fill="#fff"/>
  </g>
</svg>
