<svg id="messenger" xmlns="http://www.w3.org/2000/svg" width="60" height="60" viewBox="0 0 60 60">
  <path id="Path_48" data-name="Path 48" d="M168.342,210.211,158.621,220.5l8.847-4.854,4.622,4.854,9.667-10.292-8.749,4.769Zm0,0" transform="translate(-140.033 -185.577)" fill="#fff"/>
  <path id="Path_49" data-name="Path 49" d="M30,0A30,30,0,1,0,60,30,30,30,0,0,0,30,0Zm.234,46.059a19.267,19.267,0,0,1-5.336-.748l-6.05,3.439V42.28a16.383,16.383,0,0,1-6.64-13.039c0-9.289,8.07-16.819,18.026-16.819S48.26,19.952,48.26,29.241,40.19,46.059,30.234,46.059Zm0,0" fill="#fff"/>
</svg>
