<svg xmlns="http://www.w3.org/2000/svg" width="250.522" height="173.641" viewBox="0 0 250.522 173.641">
  <g id="mysql" transform="translate(18.458 -6.58)">
    <path id="Path_21" data-name="Path 21" d="M-18.458,6.58H232.064V180.221H-18.458Z" fill="none"/>
    <path id="Path_22" data-name="Path 22" d="M50.069,123.186H43.287q-.36-17.172-1.98-32.3h-.06l-10.326,32.3H25.756l-10.265-32.3h-.059q-1.142,14.524-1.44,32.3H7.81q.6-21.611,3-40.522h8.406L29,112.439h.06L38.9,82.664h8.043q2.642,22.152,3.122,40.522m29.414-29.9q-4.142,22.478-10.926,32.671-5.284,7.848-11.586,7.85a11.388,11.388,0,0,1-4.141-1.009v-3.613a19.945,19.945,0,0,0,2.82.181,6.817,6.817,0,0,0,4.744-1.623,5.919,5.919,0,0,0,2.159-4.44,29.545,29.545,0,0,0-1.68-6.9L53.429,93.288h6.663l5.342,17.287q1.8,5.888,1.5,8.227a112.919,112.919,0,0,0,6.124-25.515h6.423v0Z" transform="translate(8.159 23.632)" fill="#5d87a1"/>
    <path id="Path_23" data-name="Path 23" d="M151.767,123.329H132.5V82.807h6.481v35.534h12.785Zm-24.309.979-7.449-3.676a13.844,13.844,0,0,0,1.861-1.81q4.75-5.579,4.746-16.506,0-20.109-15.786-20.112-7.742,0-12.067,5.1-4.746,5.583-4.743,16.449,0,10.685,4.2,15.663,3.843,4.5,11.59,4.506a18.672,18.672,0,0,0,5.305-.712l9.7,5.646Zm-24.132-9.088q-2.461-3.959-2.461-12.722,0-15.3,9.305-15.31a7.807,7.807,0,0,1,7.141,3.659q2.457,3.965,2.463,12.607,0,15.43-9.3,15.431-4.868,0-7.144-3.664M91.2,112.1a10.751,10.751,0,0,1-3.78,8.464q-3.782,3.3-10.14,3.3a20.306,20.306,0,0,1-11.525-3.785l1.742-3.48a19.716,19.716,0,0,0,8.7,2.4,9.138,9.138,0,0,0,5.734-1.615,5.5,5.5,0,0,0,2.207-4.5c0-2.408-1.679-4.465-4.759-6.189-2.84-1.56-8.52-4.82-8.52-4.82-3.079-2.244-4.62-4.653-4.62-8.621a10.067,10.067,0,0,1,3.45-7.953A13,13,0,0,1,78.6,82.267a18.486,18.486,0,0,1,10.261,3L87.3,88.75a19.839,19.839,0,0,0-7.8-1.679,6.948,6.948,0,0,0-4.8,1.5,5.02,5.02,0,0,0-1.818,3.844c0,2.4,1.714,4.48,4.878,6.237,2.878,1.562,8.7,4.879,8.7,4.879,3.157,2.24,4.734,4.626,4.734,8.563" transform="translate(26.155 23.489)" fill="#f8981d"/>
    <path id="Path_24" data-name="Path 24" d="M153.3,85.261a22.626,22.626,0,0,0-9.5,1.372c-.735.294-1.9.294-2.007,1.223.4.393.443,1.028.788,1.57a11.376,11.376,0,0,0,2.545,2.983c1.026.786,2.056,1.565,3.136,2.25,1.9,1.178,4.063,1.864,5.919,3.038,1.081.683,2.156,1.566,3.238,2.3.532.392.873,1.028,1.564,1.273v-.149c-.346-.44-.444-1.077-.784-1.567l-1.47-1.418a23.3,23.3,0,0,0-5.09-4.942c-1.567-1.08-5-2.548-5.632-4.354l-.1-.1a19.506,19.506,0,0,0,3.379-.792c1.666-.439,3.185-.339,4.894-.779.786-.2,1.566-.443,2.355-.685v-.442c-.886-.882-1.518-2.054-2.45-2.887a65.189,65.189,0,0,0-8.079-6.022c-1.52-.982-3.476-1.613-5.094-2.448-.583-.295-1.566-.44-1.91-.931A19.947,19.947,0,0,1,137,69.984c-1.415-2.691-2.79-5.676-4.012-8.522a52.953,52.953,0,0,0-2.5-5.579c-5.046-8.322-10.525-13.363-18.947-18.31a23.481,23.481,0,0,0-6.263-2.009L101.6,35.37a19.463,19.463,0,0,1-2.253-1.716c-2.794-1.761-9.988-5.579-12.043-.539-1.324,3.186,1.958,6.318,3.085,7.934a22.5,22.5,0,0,1,2.493,3.672c.345.832.442,1.716.786,2.595a58.648,58.648,0,0,0,2.546,6.562,23.364,23.364,0,0,0,1.81,3.03c.393.543,1.077.782,1.227,1.667-.683.975-.737,2.447-1.128,3.671C96.366,67.78,97.054,74.633,99.551,78.7c.781,1.224,2.645,3.919,5.138,2.886,2.207-.881,1.718-3.671,2.353-6.118.145-.591.05-.979.343-1.367v.1c.683,1.37,1.372,2.689,2.005,4.063a27.916,27.916,0,0,0,6.367,6.556c1.173.886,2.1,2.4,3.571,2.942v-.147h-.1a5.485,5.485,0,0,0-1.123-.976,23.775,23.775,0,0,1-2.546-2.937,63.064,63.064,0,0,1-5.481-8.913c-.789-1.52-1.469-3.182-2.1-4.7-.3-.586-.3-1.469-.788-1.764a18.313,18.313,0,0,0-2.347,3.326c-.932,2.109-1.029,4.7-1.375,7.4l-.193.094c-1.56-.392-2.1-2.005-2.695-3.375a21.206,21.206,0,0,1-.44-13.075c.341-1.026,1.815-4.258,1.227-5.236-.295-.937-1.275-1.47-1.813-2.208a19.9,19.9,0,0,1-1.764-3.132c-1.174-2.74-1.765-5.777-3.03-8.516a26.375,26.375,0,0,0-2.448-3.773,24.256,24.256,0,0,1-2.7-3.818c-.244-.539-.586-1.419-.194-2.005a.78.78,0,0,1,.685-.638c.634-.536,2.447.145,3.083.44a24.807,24.807,0,0,1,4.848,2.447c.685.491,1.421,1.422,2.3,1.667h1.03c1.564.341,3.326.094,4.8.537a31.518,31.518,0,0,1,7.051,3.376,43.443,43.443,0,0,1,15.271,16.747c.586,1.124.835,2.155,1.37,3.328,1.031,2.4,2.307,4.849,3.33,7.2a32.259,32.259,0,0,0,3.478,6.56c.733,1.028,3.676,1.566,5,2.1a34.537,34.537,0,0,1,3.377,1.368c1.666,1.026,3.325,2.2,4.891,3.333.78.587,3.231,1.811,3.376,2.792M103.362,42.713a7.628,7.628,0,0,0-2,.246v.1h.094a15.977,15.977,0,0,0,1.569,2.008c.395.785.737,1.564,1.123,2.347l.094-.1a2.751,2.751,0,0,0,1.034-2.448,11.193,11.193,0,0,1-.591-1.028c-.288-.49-.924-.734-1.32-1.127" transform="translate(32.755 7.462)" fill="#5d87a1"/>
    <path id="Path_25" data-name="Path 25" d="M143.432,114.755h1.014V109.79h-1.522l-1.241,3.388-1.349-3.388h-1.465v4.965h.958v-3.777h.054l1.413,3.777h.73l1.408-3.777v3.777Zm-8.172,0h1.073v-4.123h1.4v-.843H133.8v.843h1.461l0,4.123Z" transform="translate(47.29 32.057)" fill="#f8981d"/>
  </g>
</svg>
