<svg id="web-programming_1_" data-name="web-programming (1)" xmlns="http://www.w3.org/2000/svg" width="123.856" height="109.277" viewBox="0 0 123.856 109.277">
  <path id="Path_2" data-name="Path 2" d="M131.833,181.709a2.045,2.045,0,0,0-2.883-.232l-13.231,11.267a2.046,2.046,0,0,0,0,3.114l13.231,11.267a2.045,2.045,0,1,0,2.652-3.113L120.2,194.3l11.4-9.71a2.046,2.046,0,0,0,.23-2.882Zm0,0" transform="translate(-81.407 -128.12)" fill="#007bff"/>
  <path id="Path_3" data-name="Path 3" d="M266.308,192.743l-13.231-11.267a2.045,2.045,0,0,0-2.652,3.114l11.4,9.711-11.4,9.71a2.045,2.045,0,0,0,2.652,3.113l13.231-11.267a2.045,2.045,0,0,0,0-3.114Zm0,0" transform="translate(-176.764 -128.119)" fill="#007bff"/>
  <path id="Path_4" data-name="Path 4" d="M199.667,153.069a2.045,2.045,0,0,0-2.423,1.58L189,193.8a2.045,2.045,0,1,0,4,.843l8.247-39.153a2.045,2.045,0,0,0-1.579-2.423Zm0,0" transform="translate(-133.758 -108.324)" fill="#007bff"/>
  <path id="Path_5" data-name="Path 5" d="M110.127,0h-96.4A13.744,13.744,0,0,0,0,13.729V95.548a13.745,13.745,0,0,0,13.729,13.729h96.4a13.745,13.745,0,0,0,13.729-13.729V13.729A13.744,13.744,0,0,0,110.127,0Zm-96.4,4.09h96.4a9.651,9.651,0,0,1,9.64,9.64V28.655H4.09V13.729a9.651,9.651,0,0,1,9.64-9.64Zm96.4,101.1h-96.4a9.652,9.652,0,0,1-9.64-9.64v-62.8H119.767v62.8A9.652,9.652,0,0,1,110.127,105.187Zm0,0" fill="#007bff"/>
  <path id="Path_6" data-name="Path 6" d="M104.133,47.231h.019a6.471,6.471,0,0,0,.021-12.942h-.021a6.471,6.471,0,0,0-.021,12.941Zm-1.659-8.16a2.368,2.368,0,0,1,1.679-.693h.008a2.382,2.382,0,0,1-.008,4.762h-.007a2.382,2.382,0,0,1-1.672-4.071Zm0,0" transform="translate(-69.215 -24.273)" fill="#007bff"/>
  <path id="Path_7" data-name="Path 7" d="M35.87,47.136h.021a6.447,6.447,0,1,0-.021,0Zm.021-8.851H35.9a2.381,2.381,0,0,1-.008,4.762h-.007a2.381,2.381,0,0,1,.007-4.762Zm0,0" transform="translate(-20.836 -24.24)" fill="#007bff"/>
  <path id="Path_8" data-name="Path 8" d="M172.045,47.446h.021a6.471,6.471,0,0,0,.019-12.942h-.019a6.471,6.471,0,0,0-.021,12.942Zm.021-8.852h.007a2.382,2.382,0,0,1-.007,4.763h-.008a2.382,2.382,0,0,1,.008-4.763Zm0,0" transform="translate(-117.244 -24.425)" fill="#007bff"/>
</svg>
