<svg xmlns="http://www.w3.org/2000/svg" width="60" height="60" viewBox="0 0 60 60">
  <path id="twitter" d="M30,0A30,30,0,1,0,60,30,30,30,0,0,0,30,0ZM43.7,23.391q.02.443.02.89c0,9.1-6.926,19.591-19.592,19.592h0A19.491,19.491,0,0,1,13.571,40.78a14.005,14.005,0,0,0,1.642.1,13.817,13.817,0,0,0,8.552-2.948,6.894,6.894,0,0,1-6.433-4.783,6.863,6.863,0,0,0,3.11-.118,6.888,6.888,0,0,1-5.524-6.75c0-.031,0-.059,0-.088a6.838,6.838,0,0,0,3.119.861,6.892,6.892,0,0,1-2.132-9.193A19.55,19.55,0,0,0,30.1,25.052a6.89,6.89,0,0,1,11.734-6.28A13.811,13.811,0,0,0,46.206,17.1a6.913,6.913,0,0,1-3.028,3.809,13.733,13.733,0,0,0,3.954-1.084A13.994,13.994,0,0,1,43.7,23.391Zm0,0" fill="#fff"/>
</svg>
