<svg xmlns="http://www.w3.org/2000/svg" width="129.081" height="106.748" viewBox="0 0 129.081 106.748">
  <g id="layout" transform="translate(0 -0.094)">
    <path id="Path_11" data-name="Path 11" d="M114.443.159,14.717.094h-.011C6.62.094.065,6.233.059,13.81L.05,25.187a1.707,1.707,0,0,0,0,.534L0,93.041c-.006,7.58,6.548,13.729,14.638,13.735l99.726.065h.011c8.085,0,14.641-6.14,14.647-13.717l.058-79.229c0-7.58-6.548-13.73-14.638-13.736ZM7.439,7a10.573,10.573,0,0,1,7.266-2.819h.007l99.726.065c5.68,0,10.281,4.321,10.277,9.644l-.007,9.52H4.414l.007-9.6A9.28,9.28,0,0,1,7.44,7Zm114.2,92.934a10.577,10.577,0,0,1-7.266,2.818h-.009l-99.726-.065c-5.679,0-10.281-4.321-10.277-9.643L4.412,27.5H124.707l-.049,65.623a9.281,9.281,0,0,1-3.017,6.813Zm0,0" transform="translate(0)" fill="#007bff"/>
    <path id="Path_12" data-name="Path 12" d="M86.015,38.145A6.584,6.584,0,0,0,92.8,31.784a6.8,6.8,0,0,0-13.576,0A6.592,6.592,0,0,0,86.015,38.145Zm0-8.634a2.278,2.278,0,1,1-2.425,2.274A2.353,2.353,0,0,1,86.015,29.51Zm0,0" transform="translate(-54.536 -17.931)" fill="#007bff"/>
    <path id="Path_13" data-name="Path 13" d="M35.584,38.145a6.584,6.584,0,0,0,6.789-6.36,6.586,6.586,0,0,0-6.788-6.363A6.585,6.585,0,0,0,28.8,31.784a6.591,6.591,0,0,0,6.787,6.361Zm0-8.634a2.278,2.278,0,1,1-2.426,2.274A2.353,2.353,0,0,1,35.584,29.51Zm0,0" transform="translate(-19.822 -17.931)" fill="#007bff"/>
    <path id="Path_14" data-name="Path 14" d="M136.448,38.145a6.585,6.585,0,0,0,6.789-6.361,6.8,6.8,0,0,0-13.577,0A6.592,6.592,0,0,0,136.448,38.145Zm0-8.634a2.278,2.278,0,1,1-2.425,2.274A2.353,2.353,0,0,1,136.448,29.51Zm0,0" transform="translate(-89.252 -17.931)" fill="#007bff"/>
    <path id="Path_15" data-name="Path 15" d="M85.076,135.16a2.153,2.153,0,0,0-2.134-1.627L36.2,133.511a2.117,2.117,0,0,0-2.182,2.044L34,156.176a2.117,2.117,0,0,0,2.182,2.044l46.747.022a2.353,2.353,0,0,0,1.684-.784,2.06,2.06,0,0,0,.5-1.7l.011-19.841a1.9,1.9,0,0,0-.049-.759Zm-46.7,3.7,16.052,7.02L38.368,152.9Zm7.454-1.253,27.487.013-13.729,6Zm13.757,10.528,13.759,6.016-27.487-.013Zm5.159-2.255,16.012-7-.007,14Zm0,0" transform="translate(-23.407 -94.455)" fill="#007bff"/>
    <path id="Path_16" data-name="Path 16" d="M265.061,133.559H218.317a2.343,2.343,0,0,0-1.685.776,2.048,2.048,0,0,0-.5,1.7V155.8a2.048,2.048,0,0,0,.5,1.7,2.348,2.348,0,0,0,1.685.776h46.747a2.116,2.116,0,0,0,2.182-2.044V135.6a2.116,2.116,0,0,0-2.184-2.044ZM220.5,138.914l16,7-16,7Zm7.417-1.267H255.4l-13.744,6.01Zm13.743,10.521,13.744,6.011H227.916Zm5.159-2.255,16.062-7.025v14.047Zm0,0" transform="translate(-148.759 -94.488)" fill="#007bff"/>
    <path id="Path_17" data-name="Path 17" d="M82.931,254.146l-46.745-.022a2.049,2.049,0,1,0,0,4.089l46.747.022a2.049,2.049,0,1,0,0-4.089Zm0,0" transform="translate(-23.407 -179.845)" fill="#007bff"/>
    <path id="Path_18" data-name="Path 18" d="M64.228,294.146l-28.047-.022h0a2.049,2.049,0,1,0,0,4.089l28.048.022h0a2.049,2.049,0,1,0,0-4.089Zm0,0" transform="translate(-23.401 -208.163)" fill="#007bff"/>
    <path id="Path_19" data-name="Path 19" d="M265.122,254.164H218.377a2.049,2.049,0,1,0,0,4.089h46.747a2.049,2.049,0,1,0,0-4.089Zm0,0" transform="translate(-148.819 -179.872)" fill="#007bff"/>
    <path id="Path_20" data-name="Path 20" d="M246.423,294.164H218.377a2.049,2.049,0,1,0,0,4.089h28.048a2.049,2.049,0,1,0,0-4.089Zm0,0" transform="translate(-148.819 -208.191)" fill="#007bff"/>
  </g>
</svg>
